<svg width="140" height="140" viewBox="0 0 140 140" fill="none" xmlns="http://www.w3.org/2000/svg">
<g clip-path="url(#clip0_1893_751)">
<path fill-rule="evenodd" clip-rule="evenodd" d="M39.1083 47.5022C38.3232 46.746 37.0813 46.7728 36.3289 47.5598C28.2442 55.9862 23.793 67.0768 23.793 78.7931C23.793 103.719 44.072 124 68.9999 124C93.9278 124 114.207 103.719 114.207 78.7931C114.207 54.5305 94.9784 34.7256 70.9654 33.6858V29.6552H76.8619C84.4476 29.6552 90.6206 23.4822 90.6206 15.8966C90.6206 14.8101 89.7414 13.931 88.655 13.931H80.793C76.9416 13.931 73.4655 15.5319 70.9654 18.0912V11.9655C70.9654 10.8791 70.0863 10 68.9999 10C67.9135 10 67.0343 10.8791 67.0343 11.9655V18.0912C64.5343 15.5319 61.0581 13.931 57.2068 13.931H49.3447C48.2583 13.931 47.3792 14.8101 47.3792 15.8966C47.3792 23.4822 53.5521 29.6552 61.1378 29.6552H67.0343V33.6932C60.9533 33.9509 55.0898 35.3343 49.6019 37.9434C48.623 38.4079 48.2045 39.5787 48.671 40.5615C49.1374 41.5404 50.3121 41.9589 51.291 41.4905C56.8382 38.8532 62.7962 37.5172 68.9999 37.5172C70.1441 37.5172 71.2689 37.5971 72.3899 37.689C72.3995 37.8915 72.4395 38.0295 72.4395 38.2543C72.4395 44.623 67.2589 49.8017 60.8921 49.8017C60.0859 49.8017 59.2817 49.7058 58.4755 49.5637C57.7538 49.4447 57.0033 49.7288 56.5599 50.3238C56.2086 50.796 56.0916 51.3949 56.224 51.9515C56.1242 62.7043 47.3446 71.4224 36.5688 71.4224C33.8634 71.4224 31.2452 70.8461 28.749 69.7753C30.3688 62.4936 33.9063 55.7619 39.1658 50.2777C39.9164 49.4946 39.8914 48.2508 39.1083 47.5022ZM80.793 17.8621H86.4918C85.5782 22.3421 81.6087 25.7241 76.8619 25.7241H71.1631C72.0767 21.2441 76.0462 17.8621 80.793 17.8621ZM61.1378 25.7241C56.391 25.7241 52.4216 22.3421 51.5079 17.8621H57.2068C61.9536 17.8621 65.923 21.2441 66.8366 25.7241H61.1378ZM28.9844 88.732C32.1733 87.0787 35.6873 86.1638 39.2714 86.1638C49.099 86.1638 57.8805 92.8051 60.6253 102.31C60.7827 102.851 61.1647 103.301 61.6752 103.542C62.1839 103.788 62.7712 103.792 63.2933 103.569C65.1226 102.779 67.042 102.379 68.9999 102.379C76.8581 102.379 83.2499 108.771 83.2499 116.629C83.2499 116.95 83.2348 117.225 83.2151 117.493C78.7751 119.13 74.0008 120.069 68.9999 120.069C49.6727 120.069 33.4509 106.698 28.9844 88.732ZM110.276 78.7931C110.276 81.1766 110.029 83.4989 109.639 85.7727C107.064 86.9738 104.255 87.6379 101.431 87.6379C90.5937 87.6379 81.7757 78.82 81.7757 67.9828C81.7757 58.6408 88.2767 50.7749 97.331 48.855C105.282 56.383 110.276 67.0046 110.276 78.7931ZM36.5688 75.3534C48.9205 75.3534 59.084 65.8099 60.0763 53.7097C60.3547 53.7251 60.6272 53.7328 60.8921 53.7328C69.4279 53.7328 76.3706 46.7882 76.3706 38.2543C76.3706 38.2397 76.3689 38.2279 76.3689 38.2135C82.764 39.3729 88.6332 42.0121 93.6439 45.7601C84.2916 48.9944 77.8447 57.7761 77.8447 67.9828C77.8447 80.989 88.4247 91.569 101.431 91.569C103.858 91.569 106.272 91.1409 108.587 90.3935C105.304 101.577 97.4046 110.775 87.1003 115.832C86.6725 106.185 78.7519 98.4483 68.9999 98.4483C67.2109 98.4483 65.4489 98.7093 63.7387 99.2276C59.917 89.1236 50.1393 82.2328 39.2714 82.2328C35.4388 82.2328 31.6721 83.1121 28.2 84.7228C27.9186 82.781 27.724 80.8116 27.724 78.7931C27.724 77.0985 27.8622 75.4261 28.0633 73.7675C30.7894 74.816 33.6378 75.3534 36.5688 75.3534Z" fill="#384238"/>
<path d="M43.7018 45.7015C44.7874 45.7015 45.6674 44.8216 45.6674 43.736C45.6674 42.6505 44.7874 41.7705 43.7018 41.7705C42.6163 41.7705 41.7363 42.6505 41.7363 43.736C41.7363 44.8216 42.6163 45.7015 43.7018 45.7015Z" fill="#384238"/>
</g>
<defs>
<clipPath id="clip0_1893_751">
<rect width="140" height="140" fill="white"/>
</clipPath>
</defs>
</svg>
