<svg width="140" height="140" viewBox="0 0 140 140" fill="none" xmlns="http://www.w3.org/2000/svg">
<path d="M102.991 17.2786C103.694 17.2786 104.277 16.6953 104.277 15.992V12.2866C104.277 11.5833 103.694 11 102.991 11C102.287 11 101.704 11.5661 101.704 12.2866V15.992C101.704 16.7125 102.287 17.2786 102.991 17.2786Z" fill="#394136"/>
<path d="M96.5407 17.5362C96.7466 18.0336 97.2269 18.3253 97.7244 18.3253C97.8959 18.3253 98.0503 18.291 98.2219 18.2223C98.8738 17.9479 99.1825 17.1931 98.9252 16.5412L97.5014 13.1103C97.2269 12.4584 96.4721 12.1496 95.8202 12.4069C95.1684 12.6814 94.8596 13.4362 95.1169 14.0881L96.5407 17.5362Z" fill="#394136"/>
<path d="M107.777 18.2381C107.931 18.3067 108.103 18.341 108.274 18.341C108.772 18.341 109.252 18.0494 109.458 17.5519L110.882 14.121C111.156 13.4691 110.848 12.7143 110.179 12.4398C109.527 12.1654 108.772 12.4741 108.497 13.1432L107.074 16.5741C106.799 17.2088 107.108 17.9636 107.777 18.2381Z" fill="#394136"/>
<path d="M115.394 86.9433C120.643 86.9433 124.932 82.6718 124.932 77.4053V75.5355C124.932 74.8321 124.349 74.2489 123.645 74.2489H121.775C120.592 74.2489 119.459 74.4719 118.413 74.8665C118.808 72.0016 117.95 69.0168 115.754 66.821L114.433 65.5001C113.936 65.0026 113.112 65.0026 112.615 65.5001L111.294 66.821C109.493 68.6222 108.498 71.0067 108.498 73.5627C108.498 74.0087 108.566 74.4376 108.618 74.8665C107.571 74.4719 106.439 74.2489 105.255 74.2489H103.403C102.699 74.2489 102.116 74.8321 102.116 75.5355V77.4053C102.116 82.6546 106.388 86.9433 111.654 86.9433H112.237V89.242C110.505 87.3721 108.017 86.2056 105.273 86.2056H103.42C102.717 86.2056 102.133 86.7889 102.133 87.4922V89.3621C102.133 94.6114 106.405 98.9 111.671 98.9H112.255V101.199C110.522 99.3289 108.035 98.1623 105.29 98.1623H103.437C102.734 98.1623 102.151 98.7456 102.151 99.4489V101.302C102.151 106.551 106.422 110.84 111.688 110.84H112.272V115.214C112.272 115.917 112.855 116.501 113.558 116.501C114.262 116.501 114.845 115.917 114.845 115.214V110.805H115.411C120.66 110.805 124.949 106.534 124.949 101.267V99.4146C124.949 98.7113 124.366 98.128 123.662 98.128H121.792C119.048 98.128 116.578 99.2946 114.828 101.164V98.8657H115.394C120.643 98.8657 124.932 94.5942 124.932 89.3277V87.4579C124.932 86.7546 124.349 86.1713 123.645 86.1713H121.775C119.031 86.1713 116.56 87.3378 114.811 89.2077V86.909H115.394V86.9433ZM112.255 108.232H111.671C107.829 108.232 104.707 105.11 104.707 101.267V100.701H105.273C109.115 100.701 112.237 103.823 112.237 107.666V108.232H112.255ZM112.255 96.2925H111.671C107.829 96.2925 104.707 93.1704 104.707 89.3277V88.7445H105.273C109.115 88.7445 112.237 91.8666 112.237 95.7092V96.2925H112.255ZM121.775 76.8221H122.359V77.4053C122.359 81.2479 119.236 84.3701 115.394 84.3701H114.828V83.7868C114.828 82.4659 115.222 81.2651 115.857 80.2015C116.303 79.7383 116.698 79.258 117.041 78.7262C118.276 77.5597 119.94 76.8221 121.775 76.8221ZM112.255 84.3701H111.671C107.829 84.3701 104.707 81.2479 104.707 77.4053V76.8221H105.273C107.125 76.8221 108.789 77.5597 110.042 78.7262C110.385 79.258 110.779 79.7383 111.225 80.2015C111.86 81.248 112.237 82.4659 112.237 83.7697V84.3701H112.255ZM121.775 100.701H122.359V101.267C122.359 105.11 119.236 108.232 115.394 108.232H114.828V107.666C114.828 103.823 117.95 100.701 121.775 100.701ZM121.775 88.7617H122.359V89.3449C122.359 93.1875 119.236 96.3097 115.394 96.3097H114.828V95.7264C114.828 91.8838 117.95 88.7617 121.775 88.7617ZM113.747 78.6919L113.541 78.8978L113.335 78.6919C112.975 78.1258 112.563 77.594 112.083 77.1137C110.488 74.4376 110.831 70.9381 113.112 68.6393L113.524 68.2276L113.936 68.6393C116.234 70.9381 116.56 74.4376 114.965 77.1137C114.519 77.594 114.107 78.1258 113.747 78.6919Z" fill="#394136"/>
<path d="M98.0148 74.2489H96.1449C94.9612 74.2489 93.829 74.4719 92.7826 74.8665C93.1772 72.0016 92.3194 69.0168 90.1236 66.821L88.8027 65.5001C88.3053 65.0026 87.4818 65.0026 86.9844 65.5001L85.6635 66.821C83.4677 69.0168 82.61 72.0188 83.0045 74.8665C81.9581 74.4719 80.8259 74.2489 79.6422 74.2489H77.7895C77.0862 74.2489 76.5029 74.8321 76.5029 75.5355V77.4053C76.5029 82.6546 80.7744 86.9433 86.0409 86.9433H86.6241V89.242C84.8915 87.3721 82.4041 86.2056 79.6594 86.2056H77.8067C77.1033 86.2056 76.5201 86.7889 76.5201 87.4922V89.3621C76.5201 94.6114 80.7916 98.9 86.058 98.9H86.6413V101.199C84.9087 99.3289 82.4213 98.1623 79.6765 98.1623H77.8238C77.1205 98.1623 76.5372 98.7456 76.5372 99.4489V101.302C76.5372 106.551 80.8087 110.84 86.0752 110.84H86.6584V115.214C86.6584 115.917 87.2417 116.501 87.945 116.501C88.6484 116.501 89.2316 115.917 89.2316 115.214V110.805H89.7977C95.047 110.805 99.3357 106.534 99.3357 101.267V99.4146C99.3357 98.7113 98.7524 98.128 98.0491 98.128H96.1792C93.4345 98.128 90.9642 99.2946 89.2145 101.164V98.8657H89.7806C95.0299 98.8657 99.3185 94.5942 99.3185 89.3277V87.4579C99.3185 86.7546 98.7352 86.1713 98.0319 86.1713H96.1621C93.4173 86.1713 90.9471 87.3378 89.1973 89.2077V86.909H89.7634C95.0127 86.909 99.3013 82.6375 99.3013 77.371V75.5012C99.3013 74.8321 98.7181 74.2489 98.0148 74.2489ZM86.6241 108.232H86.0409C82.1982 108.232 79.0761 105.11 79.0761 101.267V100.701H79.6422C83.4848 100.701 86.607 103.823 86.607 107.666V108.232H86.6241ZM86.6241 96.2925H86.0409C82.1982 96.2925 79.0761 93.1704 79.0761 89.3277V88.7445H79.6422C83.4848 88.7445 86.607 91.8666 86.607 95.7092V96.2925H86.6241ZM86.6241 84.3701H86.0409C82.1982 84.3701 79.0761 81.2479 79.0761 77.4053V76.8221H79.6422C81.4777 76.8221 83.1589 77.5597 84.394 78.7262C84.7371 79.2409 85.1317 79.7383 85.5777 80.2015C86.2124 81.248 86.5898 82.4659 86.5898 83.7697V84.3701H86.6241ZM96.1449 100.701H96.7282V101.267C96.7282 105.11 93.606 108.232 89.7634 108.232H89.1973V107.666C89.1973 103.823 92.3194 100.701 96.1449 100.701ZM96.1449 88.7617H96.7282V89.3449C96.7282 93.1875 93.606 96.3097 89.7634 96.3097H89.1973V95.7264C89.1973 91.8838 92.3194 88.7617 96.1449 88.7617ZM88.0994 78.6919L87.8936 78.8978L87.6877 78.6919C87.3275 78.1258 86.9157 77.594 86.4354 77.1137C84.84 74.4376 85.1831 70.9381 87.4647 68.6393L87.8764 68.2276L88.2881 68.6393C90.5868 70.9381 90.9128 74.4376 89.3174 77.1137C88.8885 77.594 88.4597 78.1258 88.0994 78.6919ZM96.7282 77.4053C96.7282 81.2479 93.606 84.3701 89.7634 84.3701H89.1973V83.7868C89.1973 82.4659 89.5919 81.2651 90.2266 80.2015C90.6726 79.7383 91.0671 79.258 91.4102 78.7262C92.6625 77.5426 94.3265 76.8221 96.1621 76.8221H96.7453V77.4053H96.7282Z" fill="#394136"/>
<path d="M102.99 18.7021C96.8835 18.7021 91.9258 23.6598 91.9258 29.7668C91.9258 35.8739 96.8835 40.8315 102.99 40.8315C109.097 40.8315 114.055 35.8739 114.055 29.7668C114.055 23.6598 109.097 18.7021 102.99 18.7021ZM102.99 38.2412C98.3073 38.2412 94.499 34.4329 94.499 29.7497C94.499 25.0665 98.3073 21.2582 102.99 21.2582C107.674 21.2582 111.482 25.0665 111.482 29.7497C111.482 34.4329 107.674 38.2412 102.99 38.2412Z" fill="#394136"/>
<path d="M104.277 47.2293V43.5239C104.277 42.8206 103.694 42.2373 102.991 42.2373C102.287 42.2373 101.704 42.8206 101.704 43.5239V47.2293C101.704 47.9326 102.287 48.5159 102.991 48.5159C103.694 48.5159 104.277 47.9498 104.277 47.2293Z" fill="#394136"/>
<path d="M107.777 41.2773C107.125 41.5518 106.817 42.3066 107.074 42.9584L108.498 46.3893C108.704 46.8868 109.184 47.1785 109.681 47.1785C109.853 47.1785 110.007 47.1442 110.179 47.0755C110.831 46.8011 111.14 46.0463 110.882 45.3944L109.458 41.9635C109.184 41.3288 108.429 41.02 107.777 41.2773Z" fill="#394136"/>
<path d="M92.3552 20.9324C92.6125 21.1897 92.9384 21.3098 93.2644 21.3098C93.5903 21.3098 93.9162 21.1897 94.1736 20.9324C94.671 20.4349 94.671 19.6115 94.1736 19.114L91.5489 16.4893C91.0514 15.9918 90.228 15.9918 89.7305 16.4893C89.2331 16.9868 89.2331 17.8102 89.7305 18.3077L92.3552 20.9324Z" fill="#394136"/>
<path d="M114.45 43.0271C114.707 43.2844 115.033 43.4045 115.359 43.4045C115.685 43.4045 116.011 43.2844 116.268 43.0271C116.766 42.5296 116.766 41.7062 116.268 41.2087L113.644 38.584C113.146 38.0866 112.323 38.0866 111.825 38.584C111.328 39.0815 111.328 39.9049 111.825 40.4024L114.45 43.0271Z" fill="#394136"/>
<path d="M86.3519 24.26L89.7828 25.6838C89.9372 25.7524 90.1087 25.7867 90.2803 25.7867C90.7777 25.7867 91.2581 25.4951 91.4639 24.9976C91.7384 24.3457 91.4296 23.5909 90.7606 23.3165L87.3297 21.8926C86.6778 21.601 85.9402 21.927 85.6657 22.5788C85.3912 23.2307 85.7 23.9855 86.3519 24.26Z" fill="#394136"/>
<path d="M119.132 37.7275C119.63 37.7275 120.11 37.4359 120.316 36.9384C120.59 36.2865 120.281 35.5317 119.612 35.2572L116.182 33.8334C115.53 33.5589 114.775 33.8677 114.5 34.5367C114.226 35.1886 114.535 35.9434 115.204 36.2179L118.635 37.6417C118.806 37.7103 118.978 37.7275 119.132 37.7275Z" fill="#394136"/>
<path d="M85.5278 31.0546H89.2332C89.9365 31.0546 90.5198 30.4714 90.5198 29.768C90.5198 29.0647 89.9365 28.4814 89.2332 28.4814H85.5278C84.8245 28.4814 84.2412 29.0647 84.2412 29.768C84.2412 30.4714 84.8073 31.0546 85.5278 31.0546Z" fill="#394136"/>
<path d="M115.479 29.768C115.479 30.4714 116.063 31.0546 116.766 31.0546H120.471C121.175 31.0546 121.758 30.4714 121.758 29.768C121.758 29.0647 121.175 28.4814 120.471 28.4814H116.766C116.046 28.4814 115.479 29.0475 115.479 29.768Z" fill="#394136"/>
<path d="M91.4626 34.5351C91.1881 33.8832 90.4505 33.5744 89.7814 33.8317L86.3505 35.2556C85.6986 35.53 85.3899 36.2848 85.6472 36.9367C85.853 37.4342 86.3334 37.7258 86.8308 37.7258C87.0024 37.7258 87.1568 37.6915 87.3283 37.6229L90.7592 36.1991C91.4283 35.9418 91.737 35.187 91.4626 34.5351Z" fill="#394136"/>
<path d="M114.519 24.9815C114.724 25.479 115.205 25.7706 115.702 25.7706C115.874 25.7706 116.028 25.7363 116.2 25.6677L119.631 24.2439C120.283 23.9694 120.591 23.2146 120.334 22.5627C120.059 21.9109 119.305 21.5849 118.653 21.8594L115.222 23.2832C114.57 23.5748 114.244 24.3296 114.519 24.9815Z" fill="#394136"/>
<path d="M90.6397 43.4045C90.9657 43.4045 91.2916 43.2844 91.5489 43.0271L94.1736 40.4024C94.671 39.9049 94.671 39.0815 94.1736 38.584C93.6761 38.0866 92.8527 38.0866 92.3552 38.584L89.7305 41.2087C89.2331 41.7062 89.2331 42.5296 89.7305 43.0271C89.9879 43.2844 90.3138 43.4045 90.6397 43.4045Z" fill="#394136"/>
<path d="M112.734 21.3098C113.06 21.3098 113.386 21.1897 113.644 20.9324L116.268 18.3077C116.766 17.8102 116.766 16.9868 116.268 16.4893C115.771 15.9918 114.947 15.9918 114.45 16.4893L111.825 19.114C111.328 19.6115 111.328 20.4349 111.825 20.9324C112.065 21.1897 112.391 21.3098 112.734 21.3098Z" fill="#394136"/>
<path d="M96.5404 41.9808L95.1166 45.4117C94.8421 46.0636 95.1509 46.8184 95.8199 47.0928C95.9743 47.1615 96.1459 47.1958 96.3174 47.1958C96.8149 47.1958 97.2952 46.9041 97.5011 46.4066L98.9249 42.9757C99.1994 42.3239 98.8906 41.5691 98.2216 41.2946C97.5697 41.0201 96.8149 41.3289 96.5404 41.9808Z" fill="#394136"/>
<path d="M65.9026 85.914C62.5575 83.2208 58.3718 81.6082 53.7572 81.1965V77.5769C57.5483 75.1581 60.2588 71.1954 60.9621 66.4779C63.1064 65.4658 64.5131 63.3043 64.5131 60.8855C64.5131 58.5525 63.1922 56.4425 61.1508 55.3961V49.615C61.1508 49.0489 60.7906 48.5514 60.2588 48.3799C50.3434 45.2406 39.862 45.2406 29.9467 48.3799C29.4149 48.5514 29.0546 49.0489 29.0546 49.615V55.3961C27.0132 56.4425 25.6923 58.5525 25.6923 60.8855C25.6923 63.3043 27.0818 65.4486 29.2433 66.4779C29.9467 71.1954 32.6571 75.1581 36.4482 77.5769V81.1965C33.9951 81.4195 31.645 81.9685 29.4492 82.8777C27.5793 83.6496 25.8467 84.6789 24.3028 85.914C19.4138 89.8424 16.4803 95.349 16.0686 101.439C16.0343 102.022 16 102.605 16 103.189V115.214C16 115.917 16.5833 116.501 17.2866 116.501C17.9899 116.501 18.5732 115.935 18.5732 115.214V103.189C18.5732 102.657 18.5903 102.142 18.6246 101.61C18.9506 96.8586 21.0434 92.5014 24.5087 89.1562V115.214C24.5087 115.917 25.0919 116.501 25.7953 116.501C26.4986 116.501 27.099 115.935 27.099 115.214V102.245H63.1236V115.214C63.1236 115.917 63.7068 116.501 64.4102 116.501C65.1135 116.501 65.6968 115.917 65.6968 115.214V89.1562C69.1791 92.5014 71.2548 96.8586 71.5808 101.61C71.6151 102.125 71.6322 102.657 71.6322 103.189V115.214C71.6322 115.917 72.2155 116.501 72.9188 116.501C73.6222 116.501 74.2054 115.917 74.2054 115.214V103.189C74.2054 102.605 74.1883 102.022 74.1368 101.439C73.7251 95.349 70.7917 89.8424 65.9026 85.914ZM31.6964 65.4315C31.645 64.9168 31.3019 64.488 30.8044 64.3336C29.2776 63.8533 28.2655 62.4637 28.2655 60.8855C28.2655 59.3416 29.2605 57.9521 30.7529 57.4546C31.2847 57.2831 31.6278 56.7856 31.6278 56.2366V50.5585C40.4624 47.951 49.743 47.951 58.5948 50.5585V56.2366C58.5948 56.7856 58.955 57.2831 59.4697 57.4546C60.9621 57.9521 61.9571 59.3245 61.9571 60.8855C61.9571 62.4637 60.9278 63.8533 59.4182 64.3336C58.9207 64.488 58.5776 64.9168 58.5262 65.4315C57.8228 72.3276 52.0589 77.5426 45.1113 77.5426C38.1637 77.5426 32.3826 72.3276 31.6964 65.4315ZM51.184 82.3459C51.1669 85.691 48.4393 88.4014 45.0941 88.4014C41.749 88.4014 39.0214 85.6739 39.0043 82.3287V82.3116V82.2944V78.915C40.8913 79.6869 42.9327 80.1158 45.0941 80.1158C47.2556 80.1158 49.297 79.6869 51.184 78.915V82.2944V82.3116C51.184 82.3287 51.184 82.3287 51.184 82.3459ZM31.3533 99.672H27.099V87.1148C28.1454 86.4115 29.2433 85.7596 30.427 85.2622C30.7358 85.1421 31.0445 85.0391 31.3533 84.9191V99.672ZM56.2789 99.672H33.9265V84.1643C34.7842 83.9756 35.6763 83.8555 36.5855 83.7697C37.2888 87.8525 40.8226 90.9746 45.1113 90.9746C49.3999 90.9746 52.9338 87.8525 53.6371 83.7526C54.5463 83.8383 55.4212 83.9756 56.2961 84.1643V99.672H56.2789ZM63.1064 99.672H58.8521V84.9019C60.3788 85.4509 61.8027 86.1714 63.1064 87.0634V99.672Z" fill="#394136"/>
<path d="M49.3829 58.0204C50.2749 57.1284 51.8188 57.1284 52.7109 58.0204C52.9682 58.2777 53.2941 58.3978 53.6201 58.3978C53.946 58.3978 54.272 58.2777 54.5293 58.0204C55.0268 57.5229 55.0268 56.6995 54.5293 56.202C52.6766 54.3493 49.4172 54.3493 47.5645 56.202C47.067 56.6995 47.067 57.5229 47.5645 58.0204C48.062 58.535 48.8854 58.535 49.3829 58.0204Z" fill="#394136"/>
<path d="M41.7324 58.3978C42.0583 58.3978 42.3843 58.2777 42.6416 58.0204C43.1391 57.5229 43.1391 56.6995 42.6416 56.202C40.7889 54.3493 37.5295 54.3493 35.6768 56.202C35.1793 56.6995 35.1793 57.5229 35.6768 58.0204C36.1743 58.5179 36.9977 58.5179 37.4952 58.0204C38.3872 57.1284 39.9312 57.1284 40.8232 58.0204C41.0634 58.2777 41.4064 58.3978 41.7324 58.3978Z" fill="#394136"/>
<path d="M50.4112 66.7696C49.9137 66.2721 49.0903 66.2721 48.5928 66.7696C46.6715 68.6909 43.5493 68.6909 41.628 66.7696C41.1305 66.2721 40.3071 66.2721 39.8096 66.7696C39.3122 67.2671 39.3122 68.0905 39.8096 68.588C41.2678 70.0461 43.1891 70.7838 45.1104 70.7838C47.0317 70.7838 48.953 70.0461 50.4112 68.588C50.9086 68.0905 50.9086 67.2671 50.4112 66.7696Z" fill="#394136"/>
<path d="M22.4501 56.7177C22.9991 57.1637 23.8053 57.078 24.2513 56.529C24.6974 55.9801 24.6116 55.1738 24.0626 54.7278C22.8618 53.7671 21.438 52.2232 21.438 50.3534C21.438 45.5844 30.9416 40.4895 45.0941 40.4895C59.2466 40.4895 68.7503 45.5844 68.7503 50.3534C68.7503 52.2232 67.3264 53.7671 66.1256 54.7278C65.5767 55.1738 65.4909 55.9801 65.9369 56.529C66.1942 56.8378 66.5716 57.0093 66.9319 57.0093C67.2235 57.0093 67.498 56.9236 67.7382 56.7177C70.0883 54.8307 71.3235 52.6178 71.3235 50.3362C71.3235 45.7731 66.3658 41.8619 58.8349 39.7004L55.5584 30.7972C55.4383 30.4712 55.1982 30.2139 54.8722 30.0595C48.6451 27.3148 41.526 27.3148 35.2989 30.0595C34.9729 30.1968 34.7328 30.4712 34.6127 30.7972L31.3362 39.7004C23.8053 41.8619 18.8477 45.7731 18.8477 50.3362C18.882 52.6178 20.1171 54.8307 22.4501 56.7177ZM36.8599 32.221C42.1264 30.0424 48.079 30.0424 53.3626 32.221L55.8329 38.9627C52.5735 38.2937 48.9539 37.8992 45.1113 37.8992C41.2687 37.8992 37.6491 38.2766 34.3897 38.9627L36.8599 32.221Z" fill="#394136"/>
</svg>
