<svg width="140" height="140" viewBox="0 0 140 140" fill="none" xmlns="http://www.w3.org/2000/svg">
<g clip-path="url(#clip0_1893_766)">
<path d="M80.4042 37.623C80.4042 32.1952 75.9882 27.7793 70.5605 27.7793C65.1327 27.7793 60.7168 32.1952 60.7168 37.623C60.7168 43.0507 65.1327 47.4667 70.5605 47.4667C75.9882 47.4667 80.4042 43.0521 80.4042 37.623ZM70.5605 44.748C66.6314 44.748 63.4368 41.552 63.4368 37.6243C63.4368 33.6967 66.6328 30.5007 70.5605 30.5007C74.4882 30.5007 77.6842 33.6967 77.6842 37.6243C77.6842 41.552 74.4895 44.748 70.5605 44.748Z" fill="#394136"/>
<path d="M71.9212 22.5851V17.36C71.9212 16.6079 71.3133 16 70.5612 16C69.8091 16 69.2012 16.6079 69.2012 17.36V22.5851C69.2012 23.3372 69.8091 23.9451 70.5612 23.9451C71.3133 23.9451 71.9212 23.3358 71.9212 22.5851Z" fill="#394136"/>
<path d="M78.0069 25.9163C78.4802 25.9163 78.9399 25.6688 79.1901 25.2295L81.7769 20.6912C82.1481 20.0397 81.9197 19.2074 81.2682 18.8361C80.6141 18.4635 79.7845 18.692 79.4132 19.3448L76.8265 23.8831C76.4552 24.5345 76.6837 25.3655 77.3351 25.7381C77.5473 25.8592 77.7785 25.9163 78.0069 25.9163Z" fill="#394136"/>
<path d="M83.5012 31.32C83.7365 31.32 83.9759 31.2588 84.1935 31.1296L88.6896 28.4667C89.3356 28.0846 89.5492 27.2495 89.167 26.6035C88.7862 25.9575 87.9525 25.744 87.3038 26.1262L82.8076 28.7891C82.1616 29.1712 81.9481 30.0063 82.3303 30.6523C82.5832 31.082 83.0361 31.32 83.5012 31.32Z" fill="#394136"/>
<path d="M92.1797 37.2646C92.1674 36.5207 91.5609 35.9277 90.8197 35.9277C90.8129 35.9277 90.8047 35.9277 90.7966 35.9277L85.5714 36.0134C84.8207 36.0257 84.2223 36.6445 84.2346 37.3965C84.2468 38.1405 84.8534 38.7334 85.5946 38.7334C85.6014 38.7334 85.6095 38.7334 85.6177 38.7334L90.8428 38.6477C91.5935 38.6355 92.1919 38.0153 92.1797 37.2646Z" fill="#394136"/>
<path d="M83.0959 46.0439L87.6777 48.5558C87.8844 48.67 88.1088 48.7231 88.3291 48.7231C88.8106 48.7231 89.2757 48.4674 89.5232 48.0159C89.885 47.3576 89.6429 46.5308 88.9847 46.1704L84.4028 43.6584C83.7432 43.294 82.9177 43.5388 82.5573 44.197C82.1969 44.8552 82.4363 45.6821 83.0959 46.0439Z" fill="#394136"/>
<path d="M80.0171 55.5948C80.2728 56.0137 80.7203 56.2435 81.1772 56.2435C81.4207 56.2435 81.6655 56.1783 81.8871 56.0423C82.5277 55.6492 82.7276 54.8115 82.3332 54.1723L79.5955 49.721C79.2025 49.0791 78.3634 48.8805 77.7255 49.2749C77.085 49.6679 76.8851 50.5057 77.2795 51.1449L80.0171 55.5948Z" fill="#394136"/>
<path d="M71.0619 51.2939C71.0456 51.2939 71.0306 51.2939 71.0157 51.2953C70.2649 51.3198 69.6774 51.9481 69.7019 52.6988L69.876 57.9199C69.9005 58.6556 70.5043 59.235 71.2333 59.235C71.2496 59.235 71.2645 59.235 71.2795 59.2336C72.0302 59.2091 72.6177 58.5808 72.5933 57.8301L72.4192 52.6091C72.3961 51.8733 71.7909 51.2939 71.0619 51.2939Z" fill="#394136"/>
<path d="M60.4843 56.7553C60.6856 56.8614 60.9032 56.9117 61.1167 56.9117C61.605 56.9117 62.0782 56.6479 62.3217 56.1855L64.7561 51.5642C65.107 50.9005 64.8513 50.0777 64.1862 49.7268C63.5226 49.3773 62.6984 49.633 62.3489 50.2967L59.9145 54.9179C59.5636 55.5816 59.8179 56.4044 60.4843 56.7553Z" fill="#394136"/>
<path d="M53.4788 49.8832C53.7291 49.8832 53.982 49.8138 54.2092 49.6697L58.6142 46.8599C59.248 46.456 59.4329 45.6155 59.029 44.9818C58.6251 44.348 57.786 44.1617 57.1508 44.567L52.7458 47.3767C52.112 47.7806 51.9271 48.6211 52.331 49.2549C52.5908 49.6615 53.03 49.8832 53.4788 49.8832Z" fill="#394136"/>
<path d="M48.9646 38.7021C49.0013 39.4297 49.6024 39.9941 50.3218 39.9941C50.345 39.9941 50.3681 39.9941 50.3912 39.9928L55.6095 39.7317C56.3602 39.6936 56.9382 39.0557 56.9002 38.305C56.8621 37.5529 56.2025 36.9586 55.4735 37.0144L50.2552 37.2755C49.5045 37.3149 48.9278 37.9528 48.9646 38.7021Z" fill="#394136"/>
<path d="M56.5256 32.0529C56.7228 32.1522 56.9322 32.1984 57.1376 32.1984C57.634 32.1984 58.1141 31.9264 58.3534 31.4518C58.6921 30.7813 58.4242 29.9626 57.7537 29.624L53.0916 27.2671C52.4211 26.9298 51.6024 27.1964 51.2638 27.8668C50.9251 28.5373 51.193 29.356 51.8635 29.6947L56.5256 32.0529Z" fill="#394136"/>
<path d="M62.2598 26.4428C62.5168 26.4428 62.7779 26.3694 63.0091 26.2171C63.6361 25.8023 63.8074 24.9577 63.3926 24.3321L60.5094 19.976C60.0933 19.3491 59.2514 19.1777 58.6245 19.5925C57.9975 20.0073 57.8262 20.8519 58.241 21.4775L61.1242 25.8336C61.3866 26.228 61.8191 26.4428 62.2598 26.4428Z" fill="#394136"/>
<path d="M16.3997 123.959C16.6649 124.224 17.013 124.357 17.3612 124.357C17.7094 124.357 18.0575 124.224 18.3227 123.959C61.3123 80.9704 122.882 77.8805 123.498 77.8546C124.249 77.8234 124.831 77.1896 124.8 76.4389C124.769 75.6868 124.135 75.1006 123.384 75.1374C123.188 75.1455 116.973 75.4542 107.186 77.1991V73.8454C107.448 73.8603 107.735 73.8698 108.051 73.8698C110.045 73.8698 112.996 73.4918 114.951 71.5374C118.075 68.4149 117.173 62.7464 117.132 62.507C117.037 61.9331 116.588 61.4843 116.014 61.3891C115.844 61.3619 113.005 60.9158 110.248 61.7278C110.941 60.5704 111.46 59.2213 111.46 57.7511C111.46 53.3338 106.815 49.9638 106.617 49.8237C106.143 49.4864 105.511 49.4864 105.035 49.8237C104.838 49.9651 100.195 53.3352 100.195 57.7511C100.195 59.224 100.716 60.5758 101.412 61.7359C98.6443 60.9131 95.7856 61.3633 95.6183 61.3891C95.0444 61.4843 94.5956 61.9331 94.5004 62.507C94.461 62.7464 93.5593 68.4149 96.6818 71.5374C98.6375 73.4918 101.587 73.8698 103.581 73.8698C103.908 73.8698 104.2 73.859 104.465 73.844V77.705C98.4022 78.8774 91.2038 80.5719 83.3498 83.0118C64.424 73.7896 46.1306 69.2554 33.6336 67.0481V63.425C33.8947 63.44 34.183 63.4495 34.5013 63.4495C36.495 63.4495 39.4449 63.0714 41.3978 61.1171C44.519 57.9946 43.6201 52.3274 43.5793 52.0867C43.4841 51.5128 43.0353 51.064 42.4614 50.9688C42.2914 50.9402 39.4517 50.4942 36.695 51.3061C37.3886 50.1487 37.9067 48.7996 37.9067 47.3308C37.9067 42.9162 33.2623 39.5434 33.0651 39.4034C32.5891 39.0661 31.9581 39.0661 31.4821 39.4034C31.2849 39.5448 26.6405 42.9162 26.6405 47.3308C26.6405 48.8037 27.1614 50.1555 27.8577 51.3156C25.0914 50.4928 22.2341 50.9402 22.0641 50.9688C21.4902 51.064 21.0414 51.5128 20.9462 52.0867C20.9067 52.3274 20.0078 57.9946 23.129 61.1171C25.0819 63.0714 28.0304 63.4495 30.0242 63.4495C30.3519 63.4495 30.6457 63.4386 30.9122 63.4237V66.5898C22.6693 65.261 17.5434 65.0149 17.417 65.0094C16.688 64.9618 16.0325 65.5589 16.0012 66.3109C15.9699 67.0617 16.552 67.6954 17.3027 67.7267C17.606 67.7403 47.2758 69.1669 79.573 84.2262C75.2945 85.6515 70.8527 87.3012 66.3198 89.2025C46.9126 80.8439 29.0912 77.1923 17.5475 75.6011C16.7832 75.4937 16.1154 76.0186 16.0148 76.7626C15.9114 77.5065 16.4323 78.1933 17.1762 78.2953C28.078 79.7981 44.6605 83.175 62.8518 90.6985C58.9622 92.427 55.0196 94.3487 51.0702 96.4798C40.3588 92.2883 29.1048 89.0338 17.6196 86.8089C16.8784 86.6647 16.1698 87.1489 16.0257 87.8846C15.8829 88.6218 16.3643 89.3357 17.1014 89.4785C27.67 91.5267 38.0332 94.4684 47.9517 98.2084C44.4878 100.175 41.0293 102.306 37.6021 104.619C31.1502 102.26 24.4536 100.213 17.6876 98.5402C16.9586 98.3648 16.2202 98.8041 16.0406 99.533C15.8598 100.262 16.3045 100.999 17.0334 101.18C23.0732 102.673 29.045 104.481 34.8413 106.53C28.4846 111.029 22.2722 116.163 16.3983 122.036C15.8679 122.566 15.8679 123.427 16.3997 123.959ZM114.55 63.9718C114.632 65.6024 114.437 68.2041 113.028 69.613C111.62 71.0179 109.037 71.2151 107.392 71.1362C107.318 69.6715 107.418 66.9842 108.908 65.4936C110.319 64.0833 112.926 63.8834 114.55 63.9718ZM105.821 52.6892C106.909 53.6738 108.74 55.6417 108.74 57.7511C108.74 59.7408 107.044 61.7155 105.832 62.813C104.745 61.8284 102.915 59.8605 102.915 57.7511C102.915 55.7614 104.609 53.7867 105.821 52.6892ZM104.248 71.1294C102.777 71.207 100.094 71.1036 98.6049 69.6144C97.1986 68.2068 97.0001 65.6119 97.0817 63.9786C98.5396 63.9078 101.232 64.0017 102.723 65.4936C104.131 66.9026 104.328 69.4974 104.248 71.1294ZM40.9898 53.5514C41.0633 55.0161 40.964 57.7035 39.4748 59.1941C38.0672 60.6017 35.4682 60.7948 33.839 60.7173C33.7655 59.2539 33.8634 56.5666 35.354 55.076C36.7602 53.6684 39.3578 53.478 40.9898 53.5514ZM32.2736 42.2662C33.4854 43.3623 35.1867 45.3398 35.1867 47.3322C35.1867 49.3259 33.4854 51.3033 32.2736 52.3995C31.0618 51.3033 29.3605 49.3259 29.3605 47.3322C29.3605 45.3398 31.0618 43.3623 32.2736 42.2662ZM30.6933 60.7105C29.2381 60.7853 26.5426 60.6873 25.052 59.1954C23.6458 57.7878 23.4472 55.1943 23.5274 53.5596C25.0017 53.4929 27.6795 53.5868 29.1701 55.076C30.5777 56.4836 30.7749 59.0785 30.6933 60.7105Z" fill="#394136"/>
<path d="M123.255 85.7261C104.372 88.3291 68.0215 96.4959 36.7442 121.943C36.1608 122.418 36.0737 123.274 36.547 123.855C36.8149 124.186 37.2066 124.357 37.6024 124.357C37.9043 124.357 38.2062 124.258 38.4592 124.051C69.2237 99.0242 105.023 90.9839 123.626 88.4189C124.37 88.3169 124.891 87.6301 124.788 86.8862C124.686 86.1436 124.018 85.6132 123.255 85.7261Z" fill="#394136"/>
<path d="M124.775 98.0087C124.632 97.273 123.927 96.7806 123.181 96.933C106.99 100.072 82.8342 106.943 59.7074 121.852C59.0763 122.26 58.8941 123.102 59.3007 123.733C59.5605 124.137 59.9998 124.356 60.4459 124.356C60.6988 124.356 60.9531 124.285 61.1816 124.14C83.9439 109.465 107.743 102.697 123.699 99.6026C124.437 99.4598 124.919 98.7458 124.775 98.0087Z" fill="#394136"/>
<path d="M86.9489 124.463C87.1475 124.463 87.3515 124.42 87.5432 124.326C98.8149 118.842 111.003 114.462 123.771 111.304C124.5 111.123 124.945 110.386 124.764 109.657C124.583 108.928 123.842 108.487 123.117 108.664C110.165 111.867 97.7963 116.314 86.3532 121.88C85.6773 122.21 85.3971 123.023 85.7249 123.699C85.9588 124.182 86.4443 124.463 86.9489 124.463Z" fill="#394136"/>
</g>
<defs>
<clipPath id="clip0_1893_766">
<rect width="140" height="140" fill="white"/>
</clipPath>
</defs>
</svg>
