<svg width="140" height="140" viewBox="0 0 140 140" fill="none" xmlns="http://www.w3.org/2000/svg">
<g clip-path="url(#clip0_1893_756)">
<path d="M57.0912 131.658H27.3036C23.8428 131.658 21 128.815 21 125.354V67.3855C21 64.0483 23.7192 61.3291 27.0564 61.3291H57.462C60.7992 61.3291 63.5184 64.0483 63.5184 67.3855V125.354C63.5184 128.815 60.6756 131.658 57.0912 131.658ZM27.0564 63.9247C25.2024 63.9247 23.7192 65.4079 23.7192 67.2619V125.23C23.7192 127.208 25.326 128.815 27.3036 128.815H57.2148C59.1924 128.815 60.7992 127.208 60.7992 125.23V67.3855C60.7992 65.5315 59.316 64.0483 57.462 64.0483H27.0564V63.9247Z" fill="#394136"/>
<path d="M48.6863 69.4867H35.7083C33.3599 69.4867 31.5059 67.6327 31.5059 65.2843V62.6887C31.5059 61.9471 32.1239 61.3291 32.8655 61.3291C33.6071 61.3291 34.2251 61.9471 34.2251 62.6887V65.2843C34.2251 66.1495 34.9667 66.8911 35.8319 66.8911H48.6863C49.5515 66.8911 50.2931 66.1495 50.2931 65.2843V62.6887C50.2931 61.9471 50.9111 61.3291 51.6527 61.3291C52.3943 61.3291 53.0123 61.9471 53.0123 62.6887V65.2843C52.8887 67.6327 51.0347 69.4867 48.6863 69.4867Z" fill="#394136"/>
<path d="M52.8869 92.1071C52.6397 92.1071 52.3925 91.9835 52.1453 91.8599C49.1789 89.8823 45.7181 88.8935 42.1337 88.8935C38.5493 88.8935 35.0885 89.8823 32.1221 91.8599C31.5041 92.2307 30.6389 92.1071 30.2681 91.4891C29.8973 90.8711 30.0209 90.0059 30.6389 89.6351C34.0997 87.4103 38.0549 86.2979 42.1337 86.2979C46.2125 86.2979 50.1677 87.4103 53.6285 89.6351C54.2465 90.0059 54.4937 90.8711 53.9993 91.4891C53.7521 91.8599 53.3813 92.1071 52.8869 92.1071Z" fill="#394136"/>
<path d="M37.8083 98.0392C37.3139 98.0392 36.9431 97.792 36.6959 97.4212C36.3251 96.8032 36.4487 95.938 37.0667 95.5672C40.1567 93.5896 44.2355 93.5896 47.2019 95.5672C47.8199 95.938 48.0671 96.8032 47.5727 97.4212C47.2019 98.0392 46.3367 98.2864 45.7187 97.792C43.4939 96.4324 40.6511 96.4324 38.4263 97.792C38.3027 97.9156 38.0555 98.0392 37.8083 98.0392Z" fill="#394136"/>
<path d="M42.2583 103.725C43.2822 103.725 44.1123 102.895 44.1123 101.871C44.1123 100.847 43.2822 100.017 42.2583 100.017C41.2344 100.017 40.4043 100.847 40.4043 101.871C40.4043 102.895 41.2344 103.725 42.2583 103.725Z" fill="#394136"/>
<path d="M53.8787 59.2297C53.3843 59.2297 52.7663 58.8589 52.6427 58.3645C52.2719 57.2521 51.5303 55.1509 51.5303 53.7913V52.9261L52.2719 52.5553C61.7891 47.3641 68.8343 53.1733 71.4299 55.8925C71.9243 56.3869 71.9243 57.2521 71.4299 57.7465C70.9355 58.2409 70.0703 58.2409 69.5759 57.7465C66.9803 55.0273 61.6655 51.0721 54.4967 54.5329C54.6203 55.3981 54.9911 56.5105 55.2383 57.2521C55.4855 57.9937 55.1147 58.7353 54.4967 58.9825C54.2495 59.2297 54.0023 59.2297 53.8787 59.2297Z" fill="#394136"/>
<path d="M81.8122 68.1282C80.8234 68.1282 79.8346 68.0046 78.7222 67.881C77.9806 67.7574 77.4861 67.1394 77.6097 66.3978C77.7333 65.6562 78.3513 65.1618 79.0929 65.2854C84.1605 65.9034 88.2393 64.9146 91.2057 62.319C94.0485 59.847 95.0374 56.6334 95.2846 54.6558C87.8686 51.0714 82.5538 55.2738 79.9582 58.1166C79.4638 58.611 78.5986 58.7346 78.1042 58.2402C77.6098 57.7458 77.4861 56.8806 77.9805 56.3862C80.5761 53.5434 87.6213 47.487 97.3857 52.6782L98.1273 53.049V53.9142C98.1273 56.139 97.0149 60.8358 93.0597 64.4202C90.0933 66.8922 86.2618 68.1282 81.8122 68.1282Z" fill="#394136"/>
<path d="M81.8102 56.0163C81.6866 56.0163 81.6866 56.0163 81.563 56.0163C80.8214 55.8927 80.327 55.1511 80.5742 54.4095C80.6978 54.0387 82.0574 46.2519 74.8886 41.9259C67.5962 46.2519 69.0794 54.0387 69.203 54.4095C69.3266 55.1511 68.8322 55.8927 68.0906 56.0163C67.349 56.1399 66.6074 55.6455 66.4838 55.0275C66.4838 54.9039 64.3826 44.3979 74.2706 39.2067L74.8886 38.8359L75.5066 39.2067C85.271 44.3979 83.2934 54.9039 83.2934 55.0275C83.0462 55.5219 82.4282 56.0163 81.8102 56.0163Z" fill="#394136"/>
<path d="M74.7668 81.7233C74.0252 81.7233 73.4072 81.1053 73.4072 80.3637V53.0481C73.4072 52.3065 74.0252 51.6885 74.7668 51.6885C75.5084 51.6885 76.1264 52.3065 76.1264 53.0481V80.3637C76.1264 81.1053 75.5084 81.7233 74.7668 81.7233Z" fill="#394136"/>
<path d="M31.5063 43.2839C31.1355 43.2839 30.6411 43.0367 30.3939 42.7895C29.8995 42.1715 30.0231 41.3063 30.6411 40.9355L73.9011 8.30507C74.5191 7.81067 75.3843 7.93427 75.7551 8.55227C76.3731 9.17027 76.2495 10.0355 75.6315 10.5299L32.3715 43.1603C32.1243 43.2839 31.7535 43.2839 31.5063 43.2839Z" fill="#394136"/>
<path d="M58.2046 34.138C57.8338 34.138 57.3394 33.8908 57.0922 33.6436C56.5978 33.0256 56.7214 32.1604 57.3394 31.7896L74.0254 19.306C74.6434 18.8116 75.5086 18.9352 75.8794 19.5532C76.3738 20.1712 76.2502 21.0364 75.6322 21.4072L59.0698 33.8908C58.8226 34.0144 58.5754 34.138 58.2046 34.138Z" fill="#394136"/>
<path d="M118.15 43.2843C117.903 43.2843 117.532 43.1607 117.285 43.0371L74.0249 10.5303C73.4069 10.0359 73.2833 9.29429 73.7777 8.67629C74.2721 8.05829 75.0137 7.93469 75.6317 8.42909L118.892 41.0595C119.51 41.5539 119.633 42.2955 119.139 42.9135C118.892 43.1607 118.521 43.2843 118.15 43.2843Z" fill="#394136"/>
<path d="M91.3289 34.138C91.0817 34.138 90.7109 34.0144 90.4637 33.8908L74.0249 21.4072C73.4069 20.9128 73.2833 20.1712 73.7777 19.5532C74.2721 18.9352 75.0137 18.8116 75.6317 19.306L92.1941 31.7896C92.8121 32.284 92.9357 33.0256 92.4413 33.6436C92.1941 33.8908 91.6997 34.138 91.3289 34.138Z" fill="#394136"/>
<path d="M43.3723 63.9245C42.6307 63.9245 42.0127 63.3065 42.0127 62.5649V39.8225C42.0127 39.0809 42.6307 38.4629 43.3723 38.4629C44.1139 38.4629 44.7319 39.0809 44.7319 39.8225V62.5649C44.7319 63.3065 44.1139 63.9245 43.3723 63.9245Z" fill="#394136"/>
<path d="M99.1158 88.5209H62.1594C61.4178 88.5209 60.7998 87.9029 60.7998 87.1613C60.7998 86.4197 61.4178 85.8017 62.1594 85.8017H99.1158C102.329 85.8017 104.925 83.2061 104.925 79.9925V39.8225C104.925 39.0809 105.543 38.4629 106.285 38.4629C107.026 38.4629 107.644 39.0809 107.644 39.8225V79.9925C107.521 84.6893 103.813 88.5209 99.1158 88.5209Z" fill="#394136"/>
</g>
<defs>
<clipPath id="clip0_1893_756">
<rect width="140" height="140" fill="white"/>
</clipPath>
</defs>
</svg>
