<svg width="152" height="152" viewBox="0 0 152 152" fill="none" xmlns="http://www.w3.org/2000/svg">
<g clip-path="url(#clip0_1903_903)">
<path d="M98.4153 92.8318C97.2348 92.7338 92.5993 91.6842 91.1387 89.4699C90.3087 88.2077 90.2305 86.7747 90.1359 85.0676C89.9732 82.2254 90.7049 81.4587 90.1175 79.7223C89.5787 78.1401 88.4424 77.2066 87.7776 76.6691C85.5258 74.8204 84.0386 75.4361 80.7142 74.0447C78.5906 73.1547 76.0279 72.0829 74.8671 69.5639C73.9533 67.5603 74.003 64.7879 75.4422 62.9141C76.783 61.168 78.8738 60.7911 81.9711 60.2988C87.3126 59.4322 89.7273 60.7211 91.2668 59.1438C92.0106 58.3803 92.641 56.8418 91.8136 53.4621L91.5939 53.4674C94.9617 54.6009 100.249 56.9548 104.976 61.8799C110.276 67.3953 112.123 73.2947 113.262 76.8993C115.093 82.7172 115.291 87.7256 115.249 90.5643C115.207 93.2617 114.919 95.5338 114.635 97.2164L115.382 97.3523L96.5772 92.3136" fill="#384238"/>
<path d="M85.9093 49.1452C85.2985 48.9815 84.6964 48.8331 84.0791 48.6933L85.3533 43.9383C87.6085 44.3372 93.0628 44.6304 97.7848 42.8661C104.513 40.3684 108.211 33.8494 108.363 33.5692C108.556 33.2356 108.427 32.8033 108.091 32.6232C107.977 32.5671 107.869 32.5382 107.743 32.5301C107.69 32.4901 107.621 32.4589 107.552 32.4276C106.514 32.0853 97.1725 29.197 89.9937 34.8604C88.8048 35.7999 87.7875 36.9137 86.9267 38.0182L87.2123 36.9522C87.4904 36.8727 87.6992 36.6205 87.7163 36.317C87.7885 34.706 86.9549 28.4747 83.8158 23.7567C79.8348 17.7732 72.6422 15.6791 72.3427 15.5989C71.9714 15.4994 71.5917 15.7186 71.4955 16.0779C71.4634 16.1977 71.4552 16.3239 71.4894 16.4357C71.4702 16.5076 71.4509 16.5795 71.4317 16.6513C71.3321 17.7415 70.6599 27.4847 77.8371 33.182C80.4936 35.2931 83.8526 36.4114 85.8154 36.8475L82.7152 48.4177C65.9723 45.2666 49.2937 52.4154 39.8109 65.7672C39.7198 65.8199 39.6526 65.8789 39.591 65.9651C37.3731 69.068 35.6166 72.4614 34.3862 76.0471C34.0416 77.0459 33.7544 78.0217 33.5129 78.9711C33.4679 79.1388 33.423 79.3065 33.3781 79.4742C27.2546 102.327 40.8628 125.897 63.7158 132.021C86.5688 138.144 110.139 124.536 116.262 101.683C122.386 78.8299 108.778 55.2599 85.9245 49.1365L85.9093 49.1452ZM90.8622 35.9789C96.5595 31.4847 103.791 32.8577 106.307 33.5316C106.45 33.5701 106.582 33.6054 106.702 33.6375C105.569 35.3751 102.356 39.7005 97.3103 41.5707C92.9335 43.1965 87.8578 42.9277 85.7758 42.6009C86.5663 40.8485 88.4357 37.8962 90.8742 35.9821L90.8622 35.9789ZM115.854 96.7853L115.842 96.7821C115.977 95.9451 116.072 95.1105 116.155 94.2727C116.084 95.1137 115.977 95.9451 115.854 96.7853ZM92.1444 89.2126C91.4141 88.1055 91.3485 86.817 91.253 85.1611C91.189 83.9629 91.2866 83.1674 91.3705 82.471C91.4762 81.5494 91.5738 80.7539 91.1926 79.6376C90.8057 78.4941 90.143 77.6618 89.5334 77.0621C89.0963 76.5855 88.6662 76.2263 88.3486 75.9743C87.2418 75.0744 86.3069 74.6827 85.3248 74.4195C84.9654 74.3232 84.6149 74.2421 84.2372 74.1666C83.3532 73.9683 82.3342 73.7466 81.0529 73.2107C79.5863 72.5995 77.9736 71.9106 76.8168 70.7662C76.4626 70.3632 76.154 69.9339 75.9222 69.4097C75.0315 67.4636 75.2382 65.0157 76.407 63.4803C77.0622 62.616 77.9606 62.1378 79.1847 61.7855C79.9821 61.5883 80.9384 61.4209 82.0936 61.2298C84.3465 60.8707 86.0454 60.9023 87.4257 60.9255C88.6254 60.9517 89.6749 60.9633 90.5675 60.6505C91.1715 60.5042 91.7022 60.2485 92.1677 59.757C93.1442 58.7477 93.4919 57.2105 93.2029 55.0791L93.6539 55.2642C96.597 56.2582 99.4366 57.494 104.276 62.5264C109.413 67.8826 111.244 73.7005 112.34 77.178C113.708 81.5113 114.363 86.0131 114.29 90.5507C114.265 92.367 114.111 94.1872 113.862 95.9817L96.8057 91.4116L96.7704 91.5434C95.3331 91.1582 93.4321 90.4435 92.3957 89.4725C92.3191 89.375 92.2274 89.2862 92.166 89.1799L92.1444 89.2126ZM78.6946 32.0896C72.6722 27.305 72.6769 19.3342 72.7817 17.2185C74.737 17.9221 79.6731 20.0535 82.6535 24.5493C85.118 28.2393 86.0493 32.9562 86.2671 35.2098C86.2391 35.2665 86.211 35.3231 86.195 35.383L86.1629 35.5028C84.2536 35.1067 81.0543 33.9671 78.6827 32.0864L78.6946 32.0896ZM37.9846 109.426C37.1995 107.996 36.5176 106.517 35.9627 104.994C34.2102 100.276 33.9937 96.3406 33.8374 93.4745C33.6514 90.0484 33.3825 85.111 34.8608 79.3066C35.9132 75.5705 37.4486 72.0922 39.3878 68.9274L58.6595 74.0913C58.6595 74.0913 58.7074 74.1041 58.7434 74.1137C58.7673 74.1202 58.7913 74.1266 58.8272 74.1362C59.6504 74.3696 61.838 75.2125 62.5977 75.8269C64.2328 77.1508 64.1393 79.1284 64.0723 79.7138C63.8148 81.9684 61.5026 83.1717 60.5332 83.5795C59.0851 84.1928 57.2752 84.1443 53.6522 84.0593C52.6841 84.031 52.026 83.9959 51.5092 83.9601C50.5628 83.8991 50.0341 83.8601 49.0985 84.0459C48.0846 84.2364 45.405 84.7508 43.8672 86.9447C42.2397 89.2815 42.9442 91.9222 43.324 92.9483C44.5581 96.2957 47.9836 97.9325 49.4397 98.6308C50.2691 99.0327 50.9326 99.2875 51.5379 99.424C52.1934 99.6125 52.7636 99.6883 53.3458 99.7673C53.964 99.8559 54.5821 99.9445 55.3846 100.16C55.8038 100.272 56.2765 100.424 56.8146 100.62C59.5052 101.597 62.8593 102.83 63.8331 105.376C64.6541 107.534 63.5282 109.916 62.0488 111.317C60.7957 112.496 56.5817 113.035 55.198 113.217C55.0263 113.235 54.8904 113.262 54.773 113.27L38.807 108.991C38.4597 108.898 38.1016 109.085 37.9726 109.423L37.9846 109.426ZM64.0633 130.676C53.2236 127.771 44.5247 120.806 39.183 111.852C39.2312 111.673 39.2106 111.462 39.1022 111.291C38.9029 110.981 38.7155 110.674 38.5314 110.355L54.701 114.688C54.701 114.688 54.7968 114.714 54.848 114.715C54.8959 114.727 54.9622 114.72 55.0165 114.708C55.1252 114.686 55.2969 114.668 55.523 114.639C58.3414 114.277 61.756 113.703 63.165 112.373C64.9866 110.653 66.3481 107.68 65.2906 104.919C64.0803 101.771 60.3972 100.424 57.4408 99.3368C56.798 99.1004 56.2415 98.9257 55.7472 98.806C54.7867 98.5102 54.0599 98.4438 53.4058 98.3456C52.8867 98.2707 52.4155 98.2086 51.9005 98.0706C51.4094 97.939 50.8625 97.7283 50.1912 97.4072C48.7678 96.7305 45.8229 95.3124 44.7815 92.4916C44.4766 91.6653 43.9104 89.5623 45.1618 87.7666C46.37 86.0363 48.5638 85.61 49.5082 85.4394C50.2656 85.2957 50.6442 85.3202 51.5667 85.3748C52.0954 85.4137 52.7775 85.4553 53.7727 85.4781C57.5882 85.5633 59.5004 85.6135 61.2362 84.8847C63.7719 83.8055 65.3724 82.0006 65.6153 79.8962C65.7033 79.1367 65.8102 76.5336 63.6262 74.7674C62.6646 73.9962 60.3038 73.0812 59.3009 72.7996C59.1212 72.7515 58.9775 72.713 58.8936 72.6905L40.3764 67.7289L40.6873 66.9521C50.3945 52.9543 68.1977 45.8244 85.5651 50.4779C87.2779 50.9369 88.9378 51.4972 90.5329 52.1557L90.9041 53.6929C91.2975 55.3388 91.5649 57.503 90.5916 58.5003C90.0286 59.0683 89.2283 59.0849 87.4782 59.0525C86.11 59.0325 84.2338 58.9919 81.8179 59.3844C78.7325 59.8799 76.2894 60.2779 74.6934 62.3536C73.1678 64.3582 72.8837 67.4786 74.0181 69.9521C75.3207 72.8045 78.1046 73.9612 80.3415 74.9072C81.7842 75.512 82.875 75.7529 83.846 75.9617C85.1077 76.2356 86.0157 76.4404 87.1727 77.3923C87.772 77.8867 88.7631 78.6914 89.2128 80.0314C89.4707 80.7938 89.4109 81.3041 89.3125 82.1507C89.2189 82.883 89.1164 83.7927 89.1931 85.1355C89.29 86.8817 89.3887 88.5256 90.3566 89.9917C92.0812 92.6105 97.1233 93.6277 98.243 93.7609L113.562 97.8656L113.524 98.0094L115.203 98.3053L115.261 98.0897L115.608 98.1828C115.416 99.2353 115.173 100.287 114.89 101.341C108.966 123.451 86.1553 136.621 64.0449 130.697L64.0633 130.676Z" fill="#3B4036"/>
</g>
<defs>
<clipPath id="clip0_1903_903">
<rect width="124" height="124" fill="white" transform="translate(32.0938) rotate(15)"/>
</clipPath>
</defs>
</svg>
